<svg width="39" height="43" viewBox="0 0 39 43" fill="none" xmlns="http://www.w3.org/2000/svg">
<path d="M23.7243 21.2014L37.4807 6.05274C38.0832 5.38781 38.4216 4.48597 38.4216 3.54561C38.4216 2.60526 38.0832 1.70342 37.4807 1.03849C36.8783 0.373555 36.0613 0 35.2093 0C34.3574 0 33.5403 0.373555 32.9379 1.03849L19.2135 16.2225L5.48912 1.03849C4.8867 0.373555 4.06965 -7.00619e-09 3.21771 0C2.36577 7.0062e-09 1.54872 0.373555 0.946307 1.03849C0.343893 1.70342 0.0054597 2.60526 0.00545969 3.54561C0.00545968 4.48597 0.343893 5.38781 0.946307 6.05274L14.7027 21.2014L0.946307 36.3501C0.646454 36.6784 0.408456 37.069 0.246038 37.4993C0.0836212 37.9296 0 38.3911 0 38.8573C0 39.3234 0.0836212 39.785 0.246038 40.2153C0.408456 40.6456 0.646454 41.0361 0.946307 41.3644C1.24371 41.6954 1.59754 41.9581 1.98739 42.1373C2.37724 42.3166 2.79538 42.4089 3.21771 42.4089C3.64004 42.4089 4.05819 42.3166 4.44804 42.1373C4.83788 41.9581 5.19171 41.6954 5.48912 41.3644L19.2135 26.1804L32.9379 41.3644C33.2353 41.6954 33.5892 41.9581 33.979 42.1373C34.3689 42.3166 34.787 42.4089 35.2093 42.4089C35.6317 42.4089 36.0498 42.3166 36.4397 42.1373C36.8295 41.9581 37.1833 41.6954 37.4807 41.3644C37.7806 41.0361 38.0186 40.6456 38.181 40.2153C38.3434 39.785 38.427 39.3234 38.427 38.8573C38.427 38.3911 38.3434 37.9296 38.181 37.4993C38.0186 37.069 37.7806 36.6784 37.4807 36.3501L23.7243 21.2014Z" fill="black"/>
</svg>
