<svg width="65" height="64" viewBox="0 0 65 64" fill="none" xmlns="http://www.w3.org/2000/svg">
<path d="M9.62773 51.2037H23.2349C23.6573 51.2061 24.076 51.1255 24.467 50.9662C24.858 50.807 25.2136 50.5725 25.5135 50.276L47.7215 28.1064L56.8357 19.213C57.1365 18.9156 57.3753 18.5618 57.5382 18.1719C57.7011 17.7821 57.785 17.364 57.785 16.9416C57.785 16.5193 57.7011 16.1012 57.5382 15.7114C57.3753 15.3215 57.1365 14.9677 56.8357 14.6703L43.2285 0.94628C42.9302 0.646436 42.5752 0.408444 42.1842 0.246031C41.7931 0.0836181 41.3736 0 40.95 0C40.5263 0 40.1068 0.0836181 39.7158 0.246031C39.3247 0.408444 38.9697 0.646436 38.6714 0.94628L29.6213 9.99966L7.34917 32.1692C7.05173 32.4682 6.81641 32.8227 6.65671 33.2124C6.497 33.6022 6.41605 34.0196 6.41849 34.4406V48.0046C6.41849 48.8531 6.7566 49.6668 7.35845 50.2667C7.9603 50.8667 8.77659 51.2037 9.62773 51.2037ZM40.95 7.72831L50.0321 16.7817L45.475 21.3244L36.3928 12.271L40.95 7.72831ZM12.837 35.7522L31.8678 16.7817L40.95 25.8351L21.9191 44.8056H12.837V35.7522ZM60.9756 57.6019H3.20924C2.3581 57.6019 1.54182 57.9389 0.939966 58.5388C0.338116 59.1388 0 59.9525 0 60.8009C0 61.6494 0.338116 62.4631 0.939966 63.063C1.54182 63.663 2.3581 64 3.20924 64H60.9756C61.8268 64 62.6431 63.663 63.2449 63.063C63.8468 62.4631 64.1849 61.6494 64.1849 60.8009C64.1849 59.9525 63.8468 59.1388 63.2449 58.5388C62.6431 57.9389 61.8268 57.6019 60.9756 57.6019Z" fill="black"/>
</svg>
